<svg width="1000" height="1000" viewBox="0 0 1000 1000" xmlns="http://www.w3.org/2000/svg"><defs/><path fill="#ffffff" d="M 0 0 L 1000 0 L 1000 1000 L 0 1000 Z"/><g opacity="0.56" transform="matrix(0.46900123857951825 0 0 0.46900123857951825 5.575486994915059 -1.021889224775816)"><path d="M 399.64057909636 1048.07412810729 C 376.54057909636 1074.57412810729 356.74057909636 1103.97412810729 340.94057909636 1135.77412810729 C 381.44057909636 1220.47412810729 456.34057909636 1285.67412810729 547.44057909636 1313.27412810729 C 548.24057909636 1313.07412810729 549.04057909636 1312.77412810729 549.84057909636 1312.47412810729 C 584.04057909636 1273.27412810729 610.64057909636 1227.27412810729 627.44057909636 1176.87412810729 C 538.34057909636 1158.47412810729 459.24057909636 1112.37412810729 399.64057909636 1048.07412810729 Z"/></g><path fill="#777777" transform="matrix(0.46900123857951825 0 0 0.46900123857951825 5.575486994915059 -1.021889224775816)" d="M 778.34057909636 914.37412810729 C 778.34057909636 914.37412810729 778.24057909636 914.27412810729 778.24057909636 914.27412810729 C 724.84057909636 864.37412810729 655.34057909636 831.67412810729 578.44057909636 824.67412810729 C 597.74057909636 852.87412810729 613.54057909636 883.77412810729 625.14057909636 916.47412810729 C 639.94057909636 958.27412810729 648.04057909636 1003.17412810729 648.04057909636 1050.07412810729 C 648.04057909636 1094.37412810729 640.84057909636 1136.97412810729 627.54057909636 1176.77412810729 C 610.74057909636 1227.17412810729 584.04057909636 1273.17412810729 549.94057909636 1312.37412810729 C 621.24057909636 1290.17412810729 682.34057909636 1244.97412810729 724.64057909636 1185.47412810729 C 763.94057909636 1130.27412810729 787.04057909636 1062.87412810729 787.04057909636 990.07412810729 C 786.94057909636 964.07412810729 783.84057909636 938.77412810729 778.34057909636 914.37412810729 Z"/><path transform="matrix(0.46900123857951825 0 0 0.46900123857951825 5.575486994915059 -1.021889224775816)" d="M 578.44057909636 824.67412810729 C 568.24057909636 823.77412810729 558.04057909636 823.27412810729 547.74057909636 823.27412810729 C 458.14057909636 823.27412810729 376.84057909636 858.17412810729 316.44057909636 915.07412810729 C 316.34057909636 915.57412810729 316.24057909636 916.17412810729 316.14057909636 916.67412810729 C 310.84057909636 940.37412810729 307.94057909636 964.97412810729 307.94057909636 990.17412810729 C 307.94057909636 1042.37412810729 319.74057909636 1091.67412810729 340.94057909636 1135.77412810729 C 356.74057909636 1103.97412810729 376.54057909636 1074.47412810729 399.64057909636 1048.07412810729 C 457.34057909636 982.07412810729 535.94057909636 934.77412810729 625.14057909636 916.47412810729 C 613.44057909636 883.77412810729 597.74057909636 852.97412810729 578.44057909636 824.67412810729 Z"/><path id="text" transform="matrix(0.9210698301588909 0 0 0.9210698301588909 258.0410251913877 58.96735121878581)" d="M 197.9183147895 396.52250624343 L 197.9183147895 405.45050624343 L 169.5983147895 405.45050624343 L 169.5983147895 425.13050624343 L 191.6783147895 425.13050624343 L 191.6783147895 434.05850624343 L 169.5983147895 434.05850624343 L 169.5983147895 463.24250624343 L 158.6543147895 463.24250624343 L 158.6543147895 396.52250624343 L 197.9183147895 396.52250624343 Z M 219.0383147895 405.35450624343 L 219.0383147895 424.93850624343 L 242.0783147895 424.93850624343 L 242.0783147895 433.86650624343 L 219.0383147895 433.86650624343 L 219.0383147895 454.31450624343 L 244.9583147895 454.31450624343 L 244.9583147895 463.24250624343 L 208.0943147895 463.24250624343 L 208.0943147895 396.42650624343 L 244.9583147895 396.42650624343 L 244.9583147895 405.35450624343 L 219.0383147895 405.35450624343 Z M 269.3423147895 454.41050624343 L 291.9023147895 454.41050624343 L 291.9023147895 463.24250624343 L 258.3983147895 463.24250624343 L 258.3983147895 396.52250624343 L 269.3423147895 396.52250624343 L 269.3423147895 454.41050624343 Z M 311.5823147895 453.73850624343 L 342.5903147895 453.73850624343 L 342.5903147895 463.24250624343 L 298.6223147895 463.24250624343 L 298.6223147895 454.69850624343 L 329.5343147895 406.02650624343 L 298.6223147895 406.02650624343 L 298.6223147895 396.52250624343 L 342.5903147895 396.52250624343 L 342.5903147895 405.06650624343 L 311.5823147895 453.73850624343 Z M 395.1983147895 423.88250624343 L 395.1983147895 433.09850624343 L 355.7423147895 433.09850624343 L 355.7423147895 423.88250624343 L 395.1983147895 423.88250624343 Z M 453.8543147895 396.52250624343 L 453.8543147895 405.45050624343 L 436.0943147895 405.45050624343 L 436.0943147895 463.24250624343 L 425.1503147895 463.24250624343 L 425.1503147895 405.45050624343 L 407.2943147895 405.45050624343 L 407.2943147895 396.52250624343 L 453.8543147895 396.52250624343 Z M 475.8383147895 405.35450624343 L 475.8383147895 424.93850624343 L 498.8783147895 424.93850624343 L 498.8783147895 433.86650624343 L 475.8383147895 433.86650624343 L 475.8383147895 454.31450624343 L 501.7583147895 454.31450624343 L 501.7583147895 463.24250624343 L 464.8943147895 463.24250624343 L 464.8943147895 396.42650624343 L 501.7583147895 396.42650624343 L 501.7583147895 405.35450624343 L 475.8383147895 405.35450624343 Z M 516.1103147895 412.17050624343 C 519.1503147895 406.98650624343 523.2783147895 402.93850624343 528.4943147895 400.02650624343 C 533.7103147895 397.11450624343 539.4223147895 395.65850624343 545.6303147895 395.65850624343 C 552.7343147895 395.65850624343 559.0543147895 397.40250624343 564.5903147895 400.89050624343 C 570.1263147895 404.37850624343 574.1423147895 409.32250624343 576.6383147895 415.72250624343 L 563.4863147895 415.72250624343 C 561.7583147895 412.20250624343 559.3583147895 409.57850624343 556.2863147895 407.85050624343 C 553.2143147895 406.12250624343 549.6623147895 405.25850624343 545.6303147895 405.25850624343 C 541.2143147895 405.25850624343 537.2783147895 406.25050624343 533.8223147895 408.23450624343 C 530.3663147895 410.21850624343 527.6623147895 413.06650624343 525.7103147895 416.77850624343 C 523.7583147895 420.49050624343 522.7823147895 424.81050624343 522.7823147895 429.73850624343 C 522.7823147895 434.66650624343 523.7583147895 438.98650624343 525.7103147895 442.69850624343 C 527.6623147895 446.41050624343 530.3663147895 449.27450624343 533.8223147895 451.29050624343 C 537.2783147895 453.30650624343 541.2143147895 454.31450624343 545.6303147895 454.31450624343 C 549.6623147895 454.31450624343 553.2143147895 453.45050624343 556.2863147895 451.72250624343 C 559.3583147895 449.99450624343 561.7583147895 447.37050624343 563.4863147895 443.85050624343 L 576.6383147895 443.85050624343 C 574.1423147895 450.25050624343 570.1263147895 455.17850624343 564.5903147895 458.63450624343 C 559.0543147895 462.09050624343 552.7343147895 463.81850624343 545.6303147895 463.81850624343 C 539.3583147895 463.81850624343 533.6303147895 462.36250624343 528.4463147895 459.45050624343 C 523.2623147895 456.53850624343 519.1503147895 452.49050624343 516.1103147895 447.30650624343 C 513.0703147895 442.12250624343 511.5503147895 436.26650624343 511.5503147895 429.73850624343 C 511.5503147895 423.21050624343 513.0703147895 417.35450624343 516.1103147895 412.17050624343 Z M 642.6863147895 396.52250624343 L 642.6863147895 463.24250624343 L 631.7423147895 463.24250624343 L 631.7423147895 434.05850624343 L 600.3503147895 434.05850624343 L 600.3503147895 463.24250624343 L 589.4063147895 463.24250624343 L 589.4063147895 396.52250624343 L 600.3503147895 396.52250624343 L 600.3503147895 425.13050624343 L 631.7423147895 425.13050624343 L 631.7423147895 396.52250624343 L 642.6863147895 396.52250624343 Z"/><path id="text" transform="matrix(0.46053491507944544 0 0 0.46053491507944544 261.26845387626446 149.6153596237032)" d="M 350.09262957901 863.65301248687 C 355.43662957901 866.37301248687 359.53262957901 870.26101248687 362.38062957901 875.31701248687 C 365.22862957901 880.37301248687 366.65262957901 886.32501248687 366.65262957901 893.17301248687 C 366.65262957901 900.02101248687 365.22862957901 905.95701248687 362.38062957901 910.98101248687 C 359.53262957901 916.00501248687 355.43662957901 919.84501248687 350.09262957901 922.50101248687 C 344.74862957901 925.15701248687 338.42862957901 926.48501248687 331.13262957901 926.48501248687 L 310.30062957901 926.48501248687 L 310.30062957901 859.57301248687 L 331.13262957901 859.57301248687 C 338.42862957901 859.57301248687 344.74862957901 860.93301248687 350.09262957901 863.65301248687 Z M 350.90862957901 912.42101248687 C 355.45262957901 907.84501248687 357.72462957901 901.42901248687 357.72462957901 893.17301248687 C 357.72462957901 884.85301248687 355.43662957901 878.35701248687 350.86062957901 873.68501248687 C 346.28462957901 869.01301248687 339.70862957901 866.67701248687 331.13262957901 866.67701248687 L 319.03662957901 866.67701248687 L 319.03662957901 919.28501248687 L 331.13262957901 919.28501248687 C 339.77262957901 919.28501248687 346.36462957901 916.99701248687 350.90862957901 912.42101248687 Z M 391.70862957901 866.67701248687 L 391.70862957901 889.04501248687 L 416.09262957901 889.04501248687 L 416.09262957901 896.24501248687 L 391.70862957901 896.24501248687 L 391.70862957901 919.28501248687 L 418.97262957901 919.28501248687 L 418.97262957901 926.48501248687 L 382.97262957901 926.48501248687 L 382.97262957901 859.47701248687 L 418.97262957901 859.47701248687 L 418.97262957901 866.67701248687 L 391.70862957901 866.67701248687 Z M 492.31662957901 859.57301248687 L 467.06862957901 926.48501248687 L 456.98862957901 926.48501248687 L 431.74062957901 859.57301248687 L 441.05262957901 859.57301248687 L 462.07662957901 917.26901248687 L 483.10062957901 859.57301248687 L 492.31662957901 859.57301248687 Z M 515.45262957901 866.67701248687 L 515.45262957901 889.04501248687 L 539.83662957901 889.04501248687 L 539.83662957901 896.24501248687 L 515.45262957901 896.24501248687 L 515.45262957901 919.28501248687 L 542.71662957901 919.28501248687 L 542.71662957901 926.48501248687 L 506.71662957901 926.48501248687 L 506.71662957901 859.47701248687 L 542.71662957901 859.47701248687 L 542.71662957901 866.67701248687 L 515.45262957901 866.67701248687 Z M 569.50062957901 919.38101248687 L 592.92462957901 919.38101248687 L 592.92462957901 926.48501248687 L 560.76462957901 926.48501248687 L 560.76462957901 859.57301248687 L 569.50062957901 859.57301248687 L 569.50062957901 919.38101248687 Z M 620.38062957901 922.78901248687 C 615.26062957901 919.87701248687 611.21262957901 915.81301248687 608.23662957901 910.59701248687 C 605.26062957901 905.38101248687 603.77262957901 899.50901248687 603.77262957901 892.98101248687 C 603.77262957901 886.45301248687 605.26062957901 880.58101248687 608.23662957901 875.36501248687 C 611.21262957901 870.14901248687 615.26062957901 866.08501248687 620.38062957901 863.17301248687 C 625.50062957901 860.26101248687 631.16462957901 858.80501248687 637.37262957901 858.80501248687 C 643.64462957901 858.80501248687 649.34062957901 860.26101248687 654.46062957901 863.17301248687 C 659.58062957901 866.08501248687 663.61262957901 870.13301248687 666.55662957901 875.31701248687 C 669.50062957901 880.50101248687 670.97262957901 886.38901248687 670.97262957901 892.98101248687 C 670.97262957901 899.57301248687 669.50062957901 905.46101248687 666.55662957901 910.64501248687 C 663.61262957901 915.82901248687 659.58062957901 919.87701248687 654.46062957901 922.78901248687 C 649.34062957901 925.70101248687 643.64462957901 927.15701248687 637.37262957901 927.15701248687 C 631.16462957901 927.15701248687 625.50062957901 925.70101248687 620.38062957901 922.78901248687 Z M 649.99662957901 916.30901248687 C 653.74062957901 914.13301248687 656.68462957901 911.02901248687 658.82862957901 906.99701248687 C 660.97262957901 902.96501248687 662.04462957901 898.29301248687 662.04462957901 892.98101248687 C 662.04462957901 887.60501248687 660.97262957901 882.91701248687 658.82862957901 878.91701248687 C 656.68462957901 874.91701248687 653.75662957901 871.82901248687 650.04462957901 869.65301248687 C 646.33262957901 867.47701248687 642.10862957901 866.38901248687 637.37262957901 866.38901248687 C 632.63662957901 866.38901248687 628.41262957901 867.47701248687 624.70062957901 869.65301248687 C 620.98862957901 871.82901248687 618.06062957901 874.91701248687 615.91662957901 878.91701248687 C 613.77262957901 882.91701248687 612.70062957901 887.60501248687 612.70062957901 892.98101248687 C 612.70062957901 898.29301248687 613.77262957901 902.96501248687 615.91662957901 906.99701248687 C 618.06062957901 911.02901248687 621.00462957901 914.13301248687 624.74862957901 916.30901248687 C 628.49262957901 918.48501248687 632.70062957901 919.57301248687 637.37262957901 919.57301248687 C 642.04462957901 919.57301248687 646.25262957901 918.48501248687 649.99662957901 916.30901248687 Z M 726.31662957901 893.02901248687 C 722.50862957901 896.70901248687 716.70062957901 898.54901248687 708.89262957901 898.54901248687 L 696.02862957901 898.54901248687 L 696.02862957901 926.48501248687 L 687.29262957901 926.48501248687 L 687.29262957901 859.57301248687 L 708.89262957901 859.57301248687 C 716.44462957901 859.57301248687 722.18862957901 861.39701248687 726.12462957901 865.04501248687 C 730.06062957901 868.69301248687 732.02862957901 873.39701248687 732.02862957901 879.15701248687 C 732.02862957901 884.72501248687 730.12462957901 889.34901248687 726.31662957901 893.02901248687 Z M 719.64462957901 888.18101248687 C 721.94862957901 886.06901248687 723.10062957901 883.06101248687 723.10062957901 879.15701248687 C 723.10062957901 870.90101248687 718.36462957901 866.77301248687 708.89262957901 866.77301248687 L 696.02862957901 866.77301248687 L 696.02862957901 891.34901248687 L 708.89262957901 891.34901248687 C 713.75662957901 891.34901248687 717.34062957901 890.29301248687 719.64462957901 888.18101248687 Z M 756.41262957901 866.67701248687 L 756.41262957901 889.04501248687 L 780.79662957901 889.04501248687 L 780.79662957901 896.24501248687 L 756.41262957901 896.24501248687 L 756.41262957901 919.28501248687 L 783.67662957901 919.28501248687 L 783.67662957901 926.48501248687 L 747.67662957901 926.48501248687 L 747.67662957901 859.47701248687 L 783.67662957901 859.47701248687 L 783.67662957901 866.67701248687 L 756.41262957901 866.67701248687 Z M 836.95662957901 926.48501248687 L 821.02062957901 899.12501248687 L 810.46062957901 899.12501248687 L 810.46062957901 926.48501248687 L 801.72462957901 926.48501248687 L 801.72462957901 859.57301248687 L 823.32462957901 859.57301248687 C 828.38062957901 859.57301248687 832.65262957901 860.43701248687 836.14062957901 862.16501248687 C 839.62862957901 863.89301248687 842.23662957901 866.22901248687 843.96462957901 869.17301248687 C 845.69262957901 872.11701248687 846.55662957901 875.47701248687 846.55662957901 879.25301248687 C 846.55662957901 883.86101248687 845.22862957901 887.92501248687 842.57262957901 891.44501248687 C 839.91662957901 894.96501248687 835.93262957901 897.30101248687 830.62062957901 898.45301248687 L 847.42062957901 926.48501248687 L 836.95662957901 926.48501248687 Z M 810.46062957901 892.11701248687 L 823.32462957901 892.11701248687 C 828.06062957901 892.11701248687 831.61262957901 890.94901248687 833.98062957901 888.61301248687 C 836.34862957901 886.27701248687 837.53262957901 883.15701248687 837.53262957901 879.25301248687 C 837.53262957901 875.28501248687 836.36462957901 872.21301248687 834.02862957901 870.03701248687 C 831.69262957901 867.86101248687 828.12462957901 866.77301248687 823.32462957901 866.77301248687 L 810.46062957901 866.77301248687 L 810.46062957901 892.11701248687 Z"/></svg>